<svg id="ic_bars" xmlns="http://www.w3.org/2000/svg" width="24" height="24" viewBox="0 0 24 24">
  <rect id="Boundary" width="24" height="24" fill="none"/>
  <path id="_Color" data-name=" ↳Color" d="M8,8H8v6H6V8H6V6H6V0H8V6H8Z" transform="translate(5 5)"/>
  <path id="_Color-2" data-name=" ↳Color" d="M8,8H8v6H6V8H6V6H6V0H8V6H8Z" transform="translate(8 5)"/>
  <path id="_Color-3" data-name=" ↳Color" d="M8,8H8v6H6V8H6V6H6V0H8V6H8Z" transform="translate(11 5)"/>
  <path id="_Color-4" data-name=" ↳Color" d="M8,8H8v6H6V8H6V6H6V0H8V6H8Z" transform="translate(14 5)"/>
  <path id="_Color-5" data-name=" ↳Color" d="M8,8H8v6H6V8H6V6H6V0H8V6H8Z" transform="translate(-4 5)"/>
  <path id="_Color-6" data-name=" ↳Color" d="M8,8H8v6H6V8H6V6H6V0H8V6H8Z" transform="translate(-1 5)"/>
  <path id="_Color-7" data-name=" ↳Color" d="M8,8H8v6H6V8H6V6H6V0H8V6H8Z" transform="translate(2 5)"/>
</svg>
