<svg xmlns="http://www.w3.org/2000/svg" width="22.5" height="20" viewBox="0 0 22.5 20">
  <path id="ic_boxes" d="M14.063,0A2.188,2.188,0,0,1,16.25,2.188v5a2.189,2.189,0,0,1-2.187,2.187H7.813A2.189,2.189,0,0,1,5.625,7.188v-5A2.188,2.188,0,0,1,7.813,0Zm0,1.875H12.5v2.5A.627.627,0,0,1,11.875,5H10a.627.627,0,0,1-.625-.625v-2.5H7.813a.313.313,0,0,0-.312.312v5a.313.313,0,0,0,.313.313h6.25a.313.313,0,0,0,.313-.312v-5a.313.313,0,0,0-.312-.312ZM0,12.813a2.188,2.188,0,0,1,2.188-2.187h6.25a2.189,2.189,0,0,1,2.188,2.188v5A2.189,2.189,0,0,1,8.438,20H2.188A2.188,2.188,0,0,1,0,17.813ZM6.875,15a.627.627,0,0,1-.625.625H4.375A.627.627,0,0,1,3.75,15V12.5H2.188a.313.313,0,0,0-.312.313v5a.313.313,0,0,0,.312.313h6.25a.313.313,0,0,0,.313-.312v-5a.313.313,0,0,0-.312-.312H6.875Zm5-2.187a2.189,2.189,0,0,1,2.188-2.187h6.25A2.189,2.189,0,0,1,22.5,12.813v5A2.189,2.189,0,0,1,20.313,20h-6.25a2.189,2.189,0,0,1-2.187-2.187ZM18.75,15a.627.627,0,0,1-.625.625H16.25A.627.627,0,0,1,15.625,15V12.5H14.063a.313.313,0,0,0-.312.313v5a.313.313,0,0,0,.313.313h6.25a.313.313,0,0,0,.313-.312v-5a.313.313,0,0,0-.312-.312H18.75Z"/>
</svg>
