<svg xmlns="http://www.w3.org/2000/svg" width="20.171" height="18" viewBox="0 0 20.171 18">
  <path id="ic_cart" d="M3.375,0A.847.847,0,0,1,4.2.686l.053.439h14.79A1.14,1.14,0,0,1,20.13,2.554l-1.9,6.751a1.125,1.125,0,0,1-1.083.819H6l.323,1.688H17.156a.844.844,0,1,1,0,1.688H5.593a.839.839,0,0,1-.8-.686L2.677,1.688H.844A.844.844,0,0,1,.844,0ZM16.72,8.438,18.3,2.813H4.609L5.681,8.438ZM4.5,16.313A1.688,1.688,0,1,1,6.188,18,1.688,1.688,0,0,1,4.5,16.313Zm13.5,0a1.688,1.688,0,1,1-1.687-1.688A1.688,1.688,0,0,1,18,16.313Z"/>
</svg>
