<svg xmlns="http://www.w3.org/2000/svg" width="13.5" height="18" viewBox="0 0 13.5 18">
  <path id="ic_list" d="M11.25,2.25H9.506a2.813,2.813,0,0,0-5.512,0H2.25A2.25,2.25,0,0,0,0,4.5V15.75A2.25,2.25,0,0,0,2.25,18h9a2.25,2.25,0,0,0,2.25-2.25V4.5A2.251,2.251,0,0,0,11.25,2.25Zm-4.5-.562a.844.844,0,1,1-.844.844A.845.845,0,0,1,6.75,1.688ZM11.813,15.75a.563.563,0,0,1-.562.563h-9a.563.563,0,0,1-.562-.562V4.5a.563.563,0,0,1,.563-.562h.642a2.215,2.215,0,0,0-.079.563v.563a.563.563,0,0,0,.563.563h6.75a.563.563,0,0,0,.563-.562V4.5a2.23,2.23,0,0,0-.08-.562h.642a.563.563,0,0,1,.563.563ZM10.125,9H6.188a.563.563,0,0,0,0,1.125h3.938a.563.563,0,0,0,0-1.125Zm0,3.375H6.188a.563.563,0,0,0,0,1.125h3.938a.563.563,0,0,0,0-1.125Zm-6.469-.281a.844.844,0,1,0,.844.844A.844.844,0,0,0,3.656,12.094ZM3.8,10.125a.56.56,0,0,0,.4-.165L5.882,8.273a.562.562,0,0,0-.8-.8L3.8,8.768l-.446-.446a.562.562,0,0,0-.8.8L3.4,9.96A.566.566,0,0,0,3.8,10.125Z"/>
</svg>
