<svg xmlns="http://www.w3.org/2000/svg" width="24" height="24" viewBox="0 0 24 24">
  <path id="ic_save" d="M23.2,37.2l-4.495-4.495A2.945,2.945,0,0,0,16.934,32H3.429A3.428,3.428,0,0,0,0,35.429V52.571A3.428,3.428,0,0,0,3.429,56H20.571A3.428,3.428,0,0,0,24,52.571V39.066A2.979,2.979,0,0,0,23.2,37.2ZM12,52.571a3.429,3.429,0,1,1,3.429-3.429A3.429,3.429,0,0,1,12,52.571Zm5.143-11.143a.86.86,0,0,1-.857.857h-12a.858.858,0,0,1-.857-.857V36.286a.858.858,0,0,1,.857-.857h12a.86.86,0,0,1,.857.857Z" transform="translate(0 -32)"/>
</svg>
