<svg xmlns="http://www.w3.org/2000/svg" width="21.249" height="20" viewBox="0 0 21.249 20">
  <path id="ic_store" d="M34.264,8.75a3.418,3.418,0,0,1-2.035-.672,3.166,3.166,0,0,1-.508-.461,3.5,3.5,0,0,1-.5.457,3.41,3.41,0,0,1-2.043.676,3.233,3.233,0,0,1-2.031-.7,2.145,2.145,0,0,1-.516-.434,2.145,2.145,0,0,1-.516.434,3.3,3.3,0,0,1-4.062,0,2.056,2.056,0,0,1-.512-.434,2.162,2.162,0,0,1-.52.434,3.519,3.519,0,0,1-2.027.7h0a3.809,3.809,0,0,1-.473-.031,3.044,3.044,0,0,1-2.028-4.664L18.727.513A1.1,1.1,0,0,1,19.662,0H33.6a1.1,1.1,0,0,1,.934.513l2.238,3.542a3.041,3.041,0,0,1-2.035,4.664c-.152.02-.309,0-.469.031ZM33.178,1.875H20.084L18.073,5.059a1.272,1.272,0,0,0-.088,1.176.976.976,0,0,0,.778.625,1.563,1.563,0,0,0,1.38-.5,1.834,1.834,0,0,1,1.395-.617,1.888,1.888,0,0,1,1.391.617,1.54,1.54,0,0,0,1.152.516,1.6,1.6,0,0,0,1.156-.516,1.875,1.875,0,0,1,2.781,0,1.55,1.55,0,0,0,2.309,0,1.875,1.875,0,0,1,2.781,0,1.562,1.562,0,0,0,1.156.516,1.524,1.524,0,0,0,.23-.016.974.974,0,0,0,.781-.625,1.263,1.263,0,0,0-.086-1.176Zm.328,11.25V9.938a4.409,4.409,0,0,0,.758.063,4.841,4.841,0,0,0,.637-.043h0c.133-.02.324-.051.48-.09V17.5a2.5,2.5,0,0,1-2.5,2.5h-12.5a2.5,2.5,0,0,1-2.5-2.5V9.867a3.611,3.611,0,0,0,.468.09h0a4.836,4.836,0,0,0,.636.043,4.959,4.959,0,0,0,.767-.062v3.188Zm0,1.875H19.756v2.5a.627.627,0,0,0,.625.625h12.5a.627.627,0,0,0,.625-.625Z" transform="translate(-16.006)"/>
</svg>
